<svg xmlns="http://www.w3.org/2000/svg" width="809" height="617.658" viewBox="0 0 809 617.658"><rect width="420" height="560" x="310.755" y="57.658" fill="#fff" rx="4"/><path fill="#cacaca" d="M726.755 617.658h-412a4.005 4.005 0 0 1-4-4v-552a4.005 4.005 0 0 1 4-4h412a4.005 4.005 0 0 1 4 4v552a4.005 4.005 0 0 1-4 4m-412-558a2 2 0 0 0-2 2v552a2 2 0 0 0 2 2h412a2 2 0 0 0 2-2v-552a2 2 0 0 0-2-2Z"/><path fill="#e6e6e6" d="M667.752 183.03h-294a7.5 7.5 0 0 1 0-15h294a7.5 7.5 0 1 1 0 15" data-name="Path 2621"/><path fill="#e6e6e6" d="M667.752 231.53h-294a7.5 7.5 0 0 1 0-15h294a7.5 7.5 0 1 1 0 15" data-name="Path 2624"/><path fill="#e6e6e6" d="M667.752 280.03h-294a7.5 7.5 0 0 1 0-15h294a7.5 7.5 0 1 1 0 15" data-name="Path 2625"/><path fill="#e6e6e6" d="M667.752 328.53h-294a7.5 7.5 0 0 1 0-15h294a7.5 7.5 0 0 1 0 15" data-name="Path 2626"/><path fill="#e6e6e6" d="M667.752 377.03h-294a7.5 7.5 0 0 1 0-15h294a7.5 7.5 0 1 1 0 15" data-name="Path 2627"/><path fill="#ffb6b6" d="M373.35 276.505a12.4 12.4 0 0 0-.388 1.911l-52.11 26.303-11.877-7.75-14.038 16.394 19.69 15.763a9.42 9.42 0 0 0 11.296.355l54.351-38.159a12.355 12.355 0 1 0-6.924-14.817"/><path fill="#dadada" d="m319.143 305.712-17.275 20.426a5.297 5.297 0 0 1-8.02.079l-17.62-20.02a14.71 14.71 0 0 1 19.064-22.408l22.597 14.001a5.297 5.297 0 0 1 1.254 7.922"/><path fill="#ffb6b6" d="M254.098 605.118h12.26l5.832-47.288h-18.094z"/><path fill="#2f2e41" d="M250.97 601.115h24.145a15.387 15.387 0 0 1 15.387 15.386v.5l-39.53.001Z"/><path fill="#ffb6b6" d="m251.336 473.432 3.486 11.753 46.995-7.853-5.146-17.347z"/><path fill="#2f2e41" d="m254.284 469.295 6.866 23.148a15.387 15.387 0 0 1-10.376 19.127l-.48.142-11.24-37.899Z"/><path fill="#e6e6e6" d="M670.276 486.087H475.227c-2.748 0-4.976-3.358-4.976-7.5s2.228-7.5 4.976-7.5h195.049c2.748 0 4.976 3.358 4.976 7.5s-2.228 7.5-4.976 7.5" data-name="Path 2622"/><path fill="#e6e6e6" d="M670.276 529.087H475.227c-2.748 0-4.976-3.358-4.976-7.5s2.228-7.5 4.976-7.5h195.049c2.748 0 4.976 3.358 4.976 7.5s-2.228 7.5-4.976 7.5" data-name="Path 2623"/><circle cx="730.755" cy="57.659" r="57.659" fill="#dadada" data-name="Ellipse 512"/><path fill="#fff" d="M706.731 53.853a3.805 3.805 0 0 0 0 7.61h20.22v20.219a3.805 3.805 0 0 0 7.609 0V61.463h20.22a3.805 3.805 0 1 0 0-7.61h-20.22v-20.22a3.805 3.805 0 0 0-7.609 0v20.22Z" data-name="Path 2642"/><path fill="#2f2e41" d="M377.99 449.249a20.07 20.07 0 0 1-17.054 9.741l-73.684 23.589-3.369-19.541 44.617-24.209-43.227-31.133 31.67-37.06 57.522 53.613a20.066 20.066 0 0 1 3.525 25" data-name="Path 2632"/><path fill="#2f2e41" d="M271.122 582.888h-18.193c-16.335-111.969-32.962-224.25 16.172-266.16l57.949 9.434-7.412 49.189-32.343 37.06Z" data-name="Path 2633"/><path fill="#dadada" d="M323.507 346.449c-24.526 16.713-56.208 12.783-69.432-12.12 19-32 23-55 7.705-65.5a36.273 36.273 0 0 1 22.145-43.742l28.974 12.129c24.6 20.054 29.445 41.776 20.215 64.687Z" data-name="Path 2637"/><path fill="#cacaca" d="M0 615.658h809v2H0z" data-name="Rectangle 53"/><path fill="#e6e6e6" d="M153.341 570.056a22.96 22.96 0 0 0 22.175-3.906c7.767-6.519 10.2-17.259 12.183-27.2l5.86-29.414-12.268 8.445c-8.823 6.076-17.846 12.346-23.955 21.146s-8.776 20.813-3.867 30.335" data-name="Path 438"/><path fill="#f2f2f2" d="M155.236 607.713c-1.548-11.251-3.133-22.645-2.048-34.018.962-10.1 4.043-19.963 10.316-28.051a46.7 46.7 0 0 1 11.972-10.849c1.2-.756 2.3 1.142 1.107 1.894a44.36 44.36 0 0 0-17.547 21.172c-3.82 9.717-4.434 20.309-3.775 30.632.4 6.242 1.242 12.444 2.092 18.637a1.136 1.136 0 0 1-.766 1.349 1.1 1.1 0 0 1-1.349-.766Z" data-name="Path 439"/><path fill="#e6e6e6" d="M56.823 590.907a17.08 17.08 0 0 0 15.695 5.834c7.434-1.261 13.036-7.235 18.047-12.869l14.825-16.665-11.049.805c-7.945.579-16.092 1.208-23.321 4.556s-13.458 10.051-13.89 18.006" data-name="Path 440"/><path fill="#f2f2f2" d="M44.103 614.147c2.605-6.27 5.232-12.628 9.229-18.165a32 32 0 0 1 13.8-11.349 27.9 27.9 0 0 1 9.455-1.975c.846-.028.841 1.284 0 1.312a26.52 26.52 0 0 0-15.453 5.614c-4.909 3.857-8.428 9.134-11.21 14.657-1.682 3.34-3.122 6.794-4.556 10.245a.68.68 0 0 1-.8.464.66.66 0 0 1-.465-.803" data-name="Path 441"/><path fill="#e6e6e6" d="M166.351 589.661a16.9 16.9 0 0 0 14.729 7.6c7.456-.354 13.672-5.558 19.267-10.5l16.55-14.612-10.953-.524c-7.877-.377-15.957-.729-23.46 1.7s-14.422 8.275-15.794 16.041" data-name="Path 442"/><path fill="#f2f2f2" d="M150.87 614.181c7.434-13.155 16.058-27.775 31.466-32.448a35.1 35.1 0 0 1 13.235-1.367c1.405.121 1.054 2.287-.348 2.166a32.62 32.62 0 0 0-21.121 5.588c-5.955 4.054-10.592 9.689-14.517 15.666-2.4 3.661-4.557 7.477-6.711 11.288-.688 1.218-2.7.339-2.004-.893" data-name="Path 443"/><path fill="#e6e6e6" d="M789.622 593.679a17.72 17.72 0 0 1-17.112-3.014c-5.994-5.031-7.873-13.319-9.4-20.993l-4.523-22.7 9.469 6.52c6.809 4.689 13.772 9.527 18.486 16.318s6.773 16.062 2.985 23.41" data-name="Path 461"/><path fill="#f2f2f2" d="M787.008 615.225c.833-6.067 1.689-12.212 1.105-18.343a28.85 28.85 0 0 0-5.563-15.126 25.2 25.2 0 0 0-6.456-5.85c-.646-.407-1.24.616-.6 1.021a23.92 23.92 0 0 1 9.462 11.417c2.06 5.24 2.391 10.951 2.036 16.517-.215 3.366-.67 6.71-1.128 10.049a.613.613 0 0 0 .413.727.6.6 0 0 0 .728-.413Z" data-name="Path 462"/><path fill="#ffb6b6" d="M232.97 366.196a10.743 10.743 0 0 0 7.445-14.695l39.602-89.472-22.655-5.706-31.804 89.743a10.8 10.8 0 0 0 7.412 20.13"/><path fill="#dadada" d="m274.656 278.03-22.034-10.313a4.817 4.817 0 0 1-1.974-7.021l13.39-20.223a13.377 13.377 0 0 1 24.199 11.413l-6.925 23.163a4.817 4.817 0 0 1-6.656 2.982"/><path fill="#2f2e41" d="M323.53 218.5h-58a4.505 4.505 0 0 1-4.5-4.5v-25a33.5 33.5 0 0 1 67 0v25a4.505 4.505 0 0 1-4.5 4.5"/><circle cx="302.797" cy="193.558" r="24.561" fill="#ffb6b6"/><path fill="#2f2e41" d="M335.955 191.5h-35.466l-.364-5.093-1.818 5.092h-5.46l-.722-10.092-3.604 10.092h-10.566v-.5a26.53 26.53 0 0 1 26.5-26.5h5a26.53 26.53 0 0 1 26.5 26.5Z"/></svg>